<svg version="1.1" id="Layer_1"
	 xmlns="http://www.w3.org/2000/svg" xmlns:xlink="http://www.w3.org/1999/xlink" x="0px" y="0px" viewBox="40 100 270 190"
	 style="enable-background:new 0 0 300 300;" xml:space="preserve">
<style type="text/css">
	.st0{fill:gray;}
</style>
		<g id="Layer_2_1_">
			<g>
				<g>
					<path class="st0" d="M300.37,200.42c1.83-4.82,1.73-9.79-0.1-14.82c-2.09-5.45-6.44-10.37-12.88-14.71
						c-7.43-5.08-18.06-8.8-31.99-10.89c-11.26-1.47-23.61-0.47-37.07,2.83c-10.84,2.77-21.26,6.96-31.31,12.51
						c-0.31-0.16-0.63-0.21-0.89-0.16c0,0-3.09,0.37-8.43,0.89c1.83-3.98,3.72-8.17,5.45-12.46c9.27-22.51,14.35-36.34,16.7-44.61
						c3.09-11.36,1.1-14.71-3.98-14.24c-1.62,0.1-15.97,14.82-35.13,34.61c-22.72-14.97-63.4-4.35-90.73,9.9
						c-7.07,3.56-13.25,7.54-18.06,11.36c-4.71,3.82-8.01,7.43-9.27,10.63c-1.36,3.19-0.63,6.28,2.46,9.01
						c7.43,6.54,38.8,6.81,70.47,5.34c-21.78,22.15-42.77,42.88-55.39,53.4c0.1-0.63-0.26-1.62-0.99-2.46
						c-0.99-1.1-2.2-1.62-2.72-1.1c-0.1,0-9.27,8.17-8.43,11.52c0.73,2.98,2.46,4.08,4.82,3.46c7.17-1.83,38.69-32.77,70.58-65.29
						c17.17-0.99,33.87-2.46,46.13-3.56c-1.47,3.14-2.98,6.13-4.45,9.06c-4.35,3.87-8.27,8.06-11.78,12.57
						c-7.28,9.27-11.88,19.53-13.98,31.05c0,0.37,0.1,0.89,0.47,1.47c0.37,0.58,0.68,1.05,1.26,1.52c0,0.1,0,0.26,0.05,0.37
						c0.73,2.62,2.09,3.72,4.08,3.19c1.26-0.26,4.55-3.82,8.64-9.53c5.55-7.8,12.62-19.42,17.54-32.15c1.2-3.09,2.3-6.28,3.19-9.48
						c2.67-2.04,5.45-4.03,8.38-5.86c12.09-7.64,24.87-13.25,38.06-16.54c13.25-3.35,25.34-4.35,36.34-2.83
						c13.25,1.99,23.25,5.34,29.9,9.9c4.55,3.09,7.64,6.54,9.16,10.26c1.62,4.08,1.47,8.17-0.1,12.46
						c-1.36,3.56-3.82,6.81-7.28,9.9c-5.81,4.92-12.62,8.8-20.16,11.36c-7.91-1.83-15.71-2.72-23.51-2.72c-2.09,0-4.08,0-5.92,0.1
						l12.88-21.62c0.1-0.37,0.1-0.73,0-1.26c-0.26-0.47-0.63-0.99-1.1-1.47c-0.47-0.63-0.99-0.99-1.47-1.1
						c-0.47-0.1-0.89-0.1-1.26,0.1l-9.53,10.26c-0.26,0.26-0.26,0.63-0.1,1.1c0.1,0.63,0.47,1.1,1.1,1.73l0.47,0.47l-7.28,12.25
						c-0.47,0-0.89,0.1-1.36,0.1c-3.98,0.63-7.07,1.26-9.16,2.09c-2.09,0.89-3.09,1.99-2.83,3.35h0.1c0.1,0.73,0.63,1.47,1.26,2.2
						c1.26,1.26,3.09,2.2,5.55,2.98l-4.92,8.43c-7.91-2.72-15.97-3.35-23.98-1.73c-10.26,2.09-18.9,6.28-25.81,12.36
						c-7.07,6.07-10.37,12.62-10,19.42c0.47,7.28,6.18,13.09,16.91,17.33c10,3.56,20.89,5.34,32.62,5.45
						c11.62,0.1,22.98-1.26,34.24-3.82c12.72-3.09,23.87-7.43,33.25-12.98c9.37-5.55,15.45-11.99,18.27-19.06
						c1.26-3.46,1.47-7.07,0.63-10.73c-1.36-5.18-3.82-9.53-7.64-12.88c-3.82-3.35-8.27-6.07-13.61-8.01
						c5.92-2.46,11.26-5.71,15.97-9.79C296.28,207.59,298.9,204.14,300.37,200.42z M198.53,109.06c0.73-0.1-1.36,1.73-2.83,6.65
						c-2.25,8.17-7.28,21.99-16.54,44.4c-0.63,1.73-1.36,3.46-2.09,5.08c-0.26-1.62-0.47-3.19-0.99-4.71
						c-1.73-6.65-5.18-12.88-11.1-17.91C183.72,123.3,197.54,109.21,198.53,109.06z M119.95,181.15
						c-32.77,1.99-66.86,2.62-73.77-3.46c-0.37-0.37-0.26-1.36,0.37-2.98c1.26-2.98,4.45-6.44,9.01-10.16
						c4.71-3.72,10.73-7.64,17.8-11.26c25.97-13.46,63.77-23.98,85.29-11.88l-4.92,5.08C143.19,157.43,131.57,169.42,119.95,181.15
						z M127.96,180.52c10.16-10.26,20.16-20.63,29.32-30.05l5.81-6.07c4.82,3.98,7.64,8.8,9.16,14.35c1.26,4.82,1.36,10,0.89,15.34
						l-1.26,2.62C160.99,177.8,145.03,179.42,127.96,180.52z M149.37,219.95c-0.63,1.1-1.2,2.15-1.78,3.14
						c1.94-4.71,4.45-9.21,7.49-13.46C153.04,213.46,151.1,216.86,149.37,219.95z M155.55,219.48c2.62-4.71,5.55-10,8.64-15.97
						C161.47,209.32,158.48,214.76,155.55,219.48z M176.65,180.79c0.58-0.05,1.1-0.1,1.62-0.16c-0.58,0.37-1.2,0.79-1.78,1.15
						C176.54,181.47,176.6,181.1,176.65,180.79z M224.61,223.04c0.37-0.1,0.73-0.37,1.36-0.63c1.83-0.73,4.92-1.36,8.8-1.83
						c3.82-0.47,8.43-0.73,13.35-0.73c4.19,0,8.64,0.26,13.25,0.73c-9.37,2.46-18.53,3.46-25.81,3.35
						C230.42,223.93,226.54,223.56,224.61,223.04z M286.28,228.74c4.08,2.83,6.65,6.44,7.8,10.89c0.63,3.09,0.47,6.07-0.63,9.16
						c-2.72,6.81-8.64,12.98-17.8,18.43c-9.16,5.55-20,9.79-32.77,12.72c-10.99,2.62-22.15,3.98-33.51,3.82
						c-11.52,0-21.99-1.73-31.78-5.18c-7.43-2.83-11.26-6.44-11.52-10.73c-0.26-6.18,2.98-12.09,9.53-17.91
						c6.81-5.92,15.18-9.9,25.24-11.99c6.44-1.26,12.88-1.1,19.16,0.47l-5.92,10c-0.26,0.37-0.26,0.73,0,1.36
						c0.26,0.63,0.63,1.1,1.26,1.62c0.47,0.47,0.99,0.89,1.47,0.99c0.47,0.1,0.89,0.1,1.1-0.26l7.17-12.09
						c7.64,2.98,14.08,8.9,19.53,17.8c0.37,0.63,0.89,1.1,1.47,1.47c0.47,0.37,0.99,0.63,1.47,0.73c0.37-0.1,0.63-0.37,0.73-0.73
						c0.1-0.37-0.1-0.89-0.47-1.47c-6.07-10-13.09-16.81-20.99-20.63l5.45-9.27c1.73,0.26,3.56,0.37,5.71,0.37
						c7.8,0.1,16.7-0.99,26.6-3.46c2.46-0.63,4.92-1.36,7.28-2.2C277.38,223.93,282.2,226.02,286.28,228.74z"/>
				</g>
			</g>
		</g>
	</svg>